<svg width="240" height="56" viewBox="0 0 240 56" xmlns="http://www.w3.org/2000/svg" fill="none">
  <!-- Icon -->
  <g transform="translate(0, 2) scale(0.42)">
    <path
      d="M78 22C61 16 41 20 28 34"
      stroke="#ffffff"
      stroke-width="8"
      stroke-linecap="round"
    />
    <path
      d="M28 94C41 108 61 112 78 106"
      stroke="#ffffff"
      stroke-width="8"
      stroke-linecap="round"
    />

    <path
      d="M7 65H20L25 57L32 80L42 38L51 65H61"
      stroke="#ff5b00"
      stroke-width="7"
      stroke-linecap="round"
      stroke-linejoin="round"
    />

    <circle
      cx="65"
      cy="65"
      r="10"
      fill="#001f4d"
      stroke="#0b6cff"
      stroke-width="7"
    />

    <path
      d="M76 65H110"
      stroke="#0b6cff"
      stroke-width="7"
      stroke-linecap="round"
    />
    <path
      d="M101 53L114 65L101 77"
      stroke="#0b6cff"
      stroke-width="7"
      stroke-linecap="round"
      stroke-linejoin="round"
    />

    <path
      d="M72 58L91 39"
      stroke="#0b6cff"
      stroke-width="7"
      stroke-linecap="round"
    />
    <circle
      cx="96"
      cy="34"
      r="8"
      fill="#001f4d"
      stroke="#0b6cff"
      stroke-width="7"
    />

    <path
      d="M72 72L91 91"
      stroke="#0b6cff"
      stroke-width="7"
      stroke-linecap="round"
    />
    <circle
      cx="96"
      cy="96"
      r="8"
      fill="#001f4d"
      stroke="#0b6cff"
      stroke-width="7"
    />
  </g>

  <!-- Wordmark -->
  <text
    x="62"
    y="35"
    font-family="Inter, Arial, Helvetica, sans-serif"
    font-size="24"
    font-weight="700"
    letter-spacing="-0.8"
  >
    <tspan fill="#ffffff">Incident</tspan><tspan fill="#0b6cff">Relay</tspan>
  </text>
</svg>